static_01
version=1
nRows=18
nColumns=46
inDegrees=yes
endheader
time	ground_force3_vx	ground_force3_vy	ground_force3_vz	ground_force3_px	ground_force3_py	ground_force3_pz	ground_torque3_x	ground_torque3_y	ground_torque3_z	ground_force5_vx	ground_force5_vy	ground_force5_vz	ground_force5_px	ground_force5_py	ground_force5_pz	ground_torque5_x	ground_torque5_y	ground_torque5_z	ground_force4_vx	ground_force4_vy	ground_force4_vz	ground_force4_px	ground_force4_py	ground_force4_pz	ground_torque4_x	ground_torque4_y	ground_torque4_z	ground_force1_vx	ground_force1_vy	ground_force1_vz	ground_force1_px	ground_force1_py	ground_force1_pz	ground_torque1_x	ground_torque1_y	ground_torque1_z	ground_force2_vx	ground_force2_vy	ground_force2_vz	ground_force2_px	ground_force2_py	ground_force2_pz	ground_torque2_x	ground_torque2_y	ground_torque2_z
0.000000	-0.000000	-0.000000	0.000000	0.200000	0.000000	-0.300000	0.000000	0.000000	-0.000000	2.968293	349.317932	20.654526	0.221295	0.000000	-1.321882	0.000010	0.003974	0.000006	-1.788520	317.821442	-20.979887	0.227274	0.000000	-1.045476	0.000024	0.195495	0.000001	-0.000000	-0.000000	0.000000	0.200000	0.000000	0.904000	0.000000	0.000000	-0.000000	-0.000000	-0.000000	0.000000	0.400000	0.000000	0.302000	0.000000	0.000000	-0.000000	
0.001000	-0.000000	-0.000000	0.000000	0.200000	0.000000	-0.300000	0.000000	0.000000	-0.000000	3.128997	350.279297	21.136806	0.222077	0.000000	-1.322193	0.000035	0.056952	0.000006	-1.625932	316.857727	-21.787659	0.226969	0.000000	-1.047613	0.000003	0.126633	0.000004	-0.000000	-0.000000	0.000000	0.200000	0.000000	0.904000	0.000000	0.000000	-0.000000	-0.000000	-0.000000	0.000000	0.400000	0.000000	0.302000	0.000000	0.000000	-0.000000	
0.002000	-0.000000	-0.000000	0.000000	0.200000	0.000000	-0.300000	0.000000	0.000000	-0.000000	3.128997	350.915741	21.136806	0.221850	0.000000	-1.321734	0.000039	0.063196	0.000006	-1.627476	317.189087	-21.625084	0.226519	0.000000	-1.045081	0.000029	0.101932	0.000003	-0.000000	-0.000000	0.000000	0.200000	0.000000	0.904000	0.000000	0.000000	-0.000000	-0.000000	-0.000000	0.000000	0.400000	0.000000	0.302000	0.000000	0.000000	-0.000000	
0.003000	-0.000000	-0.000000	0.000000	0.200000	0.000000	-0.300000	0.000000	0.000000	-0.000000	2.323951	349.958069	20.492977	0.221710	0.000000	-1.320236	-0.000017	-0.146471	0.000003	-1.300759	317.184326	-21.143478	0.226724	0.000000	-1.046281	0.000014	0.120270	0.000006	-0.000000	-0.000000	0.000000	0.200000	0.000000	0.904000	0.000000	0.000000	-0.000000	-0.000000	-0.000000	0.000000	0.400000	0.000000	0.302000	0.000000	0.000000	-0.000000	
0.004000	-0.000000	-0.000000	0.000000	0.200000	0.000000	-0.300000	0.000000	0.000000	-0.000000	3.129506	349.641510	20.815399	0.222293	0.000000	-1.321467	0.000052	-0.002499	0.000006	-1.952651	317.822784	-21.302996	0.226824	0.000000	-1.045559	0.000032	0.082429	0.000002	-0.000000	-0.000000	0.000000	0.200000	0.000000	0.904000	0.000000	0.000000	-0.000000	-0.000000	-0.000000	0.000000	0.400000	0.000000	0.302000	0.000000	0.000000	-0.000000	
0.005000	-0.000000	-0.000000	0.000000	0.200000	0.000000	-0.300000	0.000000	0.000000	-0.000000	2.322932	349.638519	20.975594	0.221638	0.000000	-1.320174	-0.000010	0.031194	0.000004	-2.437322	316.865112	-21.947170	0.226470	0.000000	-1.046802	0.000015	0.196189	0.000003	-0.000000	-0.000000	0.000000	0.200000	0.000000	0.904000	0.000000	0.000000	-0.000000	-0.000000	-0.000000	0.000000	0.400000	0.000000	0.302000	0.000000	0.000000	-0.000000	
0.006000	-0.000000	-0.000000	0.000000	0.200000	0.000000	-0.300000	0.000000	0.000000	-0.000000	2.485674	350.915710	20.654526	0.221412	0.000000	-1.321791	0.000005	-0.118151	0.000006	-2.598366	317.499878	-21.141441	0.227281	0.000000	-1.045875	0.000047	0.264764	0.000008	-0.000000	-0.000000	0.000000	0.200000	0.000000	0.904000	0.000000	0.000000	-0.000000	-0.000000	-0.000000	0.000000	0.400000	0.000000	0.302000	0.000000	0.000000	-0.000000	
0.007000	-0.000000	-0.000000	0.000000	0.200000	0.000000	-0.300000	0.000000	0.000000	-0.000000	3.129506	350.278931	20.654188	0.222251	0.000000	-1.321453	0.000044	-0.055883	0.000003	-2.760954	317.506958	-22.270279	0.226438	0.000000	-1.045253	-0.000007	0.207533	0.000000	-0.000000	-0.000000	0.000000	0.200000	0.000000	0.904000	0.000000	0.000000	-0.000000	-0.000000	-0.000000	0.000000	0.400000	0.000000	0.302000	0.000000	0.000000	-0.000000	
0.008000	-0.000000	-0.000000	0.000000	0.200000	0.000000	-0.300000	0.000000	0.000000	-0.000000	3.612635	349.005371	20.493654	0.222749	0.000000	-1.320748	0.000037	0.015149	0.000006	-1.790064	316.860748	-21.624063	0.227411	0.000000	-1.046689	0.000008	0.153450	0.000003	-0.000000	-0.000000	0.000000	0.200000	0.000000	0.904000	0.000000	0.000000	-0.000000	-0.000000	-0.000000	0.000000	0.400000	0.000000	0.302000	0.000000	0.000000	-0.000000	
0.009000	-0.000000	-0.000000	0.000000	0.200000	0.000000	-0.300000	0.000000	0.000000	-0.000000	3.934041	348.684845	20.492977	0.222529	0.000000	-1.320342	-0.000007	0.067314	0.000005	-1.466434	314.623871	-21.144501	0.227103	0.000000	-1.047097	0.000000	-0.047206	0.000006	-0.000000	-0.000000	0.000000	0.200000	0.000000	0.904000	0.000000	0.000000	-0.000000	-0.000000	-0.000000	0.000000	0.400000	0.000000	0.302000	0.000000	0.000000	-0.000000	
0.010000	-0.000000	-0.000000	0.000000	0.200000	0.000000	-0.300000	0.000000	0.000000	-0.000000	3.290718	350.280609	20.332443	0.222271	0.000000	-1.321505	0.000022	-0.090708	0.000003	-2.757865	317.826141	-21.948193	0.226442	0.000000	-1.046969	0.000043	0.332981	0.000001	-0.000000	-0.000000	0.000000	0.200000	0.000000	0.904000	0.000000	0.000000	-0.000000	-0.000000	-0.000000	0.000000	0.400000	0.000000	0.302000	0.000000	0.000000	-0.000000	
0.011000	-0.000000	-0.000000	0.000000	0.200000	0.000000	-0.300000	0.000000	0.000000	-0.000000	3.128997	348.687469	20.332781	0.222805	0.000000	-1.320794	0.000008	0.006314	0.000000	-1.951107	317.497864	-21.624063	0.227289	0.000000	-1.047672	-0.000001	0.208258	0.000003	-0.000000	-0.000000	0.000000	0.200000	0.000000	0.904000	0.000000	0.000000	-0.000000	-0.000000	-0.000000	0.000000	0.400000	0.000000	0.302000	0.000000	0.000000	-0.000000	
0.012000	-0.000000	-0.000000	0.000000	0.200000	0.000000	-0.300000	0.000000	0.000000	-0.000000	3.128997	348.368591	21.457537	0.222362	0.000000	-1.320198	-0.000001	-0.027098	0.000003	-2.598366	315.899719	-21.786636	0.227286	0.000000	-1.046557	-0.000003	0.245364	0.000002	-0.000000	-0.000000	0.000000	0.200000	0.000000	0.904000	0.000000	0.000000	-0.000000	-0.000000	-0.000000	0.000000	0.400000	0.000000	0.302000	0.000000	0.000000	-0.000000	
0.013000	-0.000000	-0.000000	0.000000	0.200000	0.000000	-0.300000	0.000000	0.000000	-0.000000	2.967784	350.281952	21.136467	0.222041	0.000000	-1.320543	0.000030	0.026993	0.000005	-2.274736	317.497162	-21.464550	0.227285	0.000000	-1.046789	0.000042	0.190716	0.000003	-0.000000	-0.000000	0.000000	0.200000	0.000000	0.904000	0.000000	0.000000	-0.000000	-0.000000	-0.000000	0.000000	0.400000	0.000000	0.302000	0.000000	0.000000	-0.000000	
0.014000	-0.000000	-0.000000	0.000000	0.200000	0.000000	-0.300000	0.000000	0.000000	-0.000000	2.323951	349.003357	20.975594	0.222223	0.000000	-1.319819	0.000037	-0.108827	-0.000001	-2.438868	317.826508	-21.302996	0.227008	0.000000	-1.044685	0.000033	0.121186	0.000000	-0.000000	-0.000000	0.000000	0.200000	0.000000	0.904000	0.000000	0.000000	-0.000000	-0.000000	-0.000000	0.000000	0.400000	0.000000	0.302000	0.000000	0.000000	-0.000000	
0.015000	-0.000000	-0.000000	0.000000	0.200000	0.000000	-0.300000	0.000000	0.000000	-0.000000	3.127977	349.322968	20.814722	0.222205	0.000000	-1.319827	0.000031	0.120198	0.000001	-2.112149	315.577820	-21.624063	0.227667	0.000000	-1.047313	0.000038	0.271342	0.000005	-0.000000	-0.000000	0.000000	0.200000	0.000000	0.904000	0.000000	0.000000	-0.000000	-0.000000	-0.000000	0.000000	0.400000	0.000000	0.302000	0.000000	0.000000	-0.000000	
0.016000	-0.000000	-0.000000	0.000000	0.200000	0.000000	-0.300000	0.000000	0.000000	-0.000000	3.451422	349.959747	20.654188	0.222389	0.000000	-1.320239	0.000019	0.004138	0.000006	-1.951107	315.901428	-20.980907	0.226935	0.000000	-1.046878	0.000009	0.143307	0.000006	-0.000000	-0.000000	0.000000	0.200000	0.000000	0.904000	0.000000	0.000000	-0.000000	-0.000000	-0.000000	0.000000	0.400000	0.000000	0.302000	0.000000	0.000000	-0.000000	
0.017000	-0.000000	-0.000000	0.000000	0.200000	0.000000	-0.300000	0.000000	0.000000	-0.000000	2.968293	349.322937	20.814383	0.222208	0.000000	-1.321895	0.000026	-0.114866	0.000005	-2.276280	315.902100	-21.785618	0.227563	0.000000	-1.046103	0.000014	0.177993	0.000003	-0.000000	-0.000000	0.000000	0.200000	0.000000	0.904000	0.000000	0.000000	-0.000000	-0.000000	-0.000000	0.000000	0.400000	0.000000	0.302000	0.000000	0.000000	-0.000000	
